<svg xmlns="http://www.w3.org/2000/svg" width="192" height="192" viewBox="0 0 192 192">
  <rect width="192" height="192" rx="38" fill="#FFFFFF"/>
  <g transform="translate(32, 32) scale(2.75)">
    <path fill="#4B4B4D" d="M11.13 42.48l-0.83 0 0 -6.06c2.08,0 1.67,-0.09 1.67,4.81 0,0.64 -0.19,1.25 -0.83,1.25zm0 -9.83l-0.83 0 0 -4.81c1.95,0 1.67,0.08 1.67,3.97 0,0.49 -0.35,0.83 -0.83,0.83zm-0.63 -18.19c0,-2.81 0.83,-6.34 0.83,-8.78l0.21 0c0,3.07 0.63,5.67 0.63,8.78l-1.67 0zm0 3.97c2.45,0 2.09,-0.18 2.09,1.88 -0,1.12 0.19,1.17 0.21,2.09l5.84 0c-0.04,-1.67 -0.64,-3.98 -0.82,-5.66 -0.48,-4.44 -1.64,-9.95 -2.09,-14.22 -0.09,-0.87 -0.02,-2.28 -0.85,-2.28 -9.04,0 -7.8,-0.7 -8.15,2.49l-2.03 14.69c-0.23,1.96 -0.58,3.91 -0.81,5.67 -0.54,4.07 -1.03,7.75 -1.61,11.76l-1.57 11.59 13.14 0c3.74,0 4.17,-2.37 4.17,-6.06 0,-1.25 -0.07,-3.41 -0.54,-4.26 -0.82,-1.5 -2,-1.2 -2.59,-2.01 1.62,-0.13 2.33,-1.05 2.52,-2.49 0.85,-6.19 -1.82,-7.76 -7.32,-7.76l0.42 -5.44z"/>
    <path fill="#4B4B4D" d="M30.83 40.3c0.16,1.04 0.24,1.64 0.39,2.75l0.37 1.93c0.21,0.62 0.02,0.15 0.2,0.43l0 -8.36c0.42,0.6 2.85,9.09 2.92,9.41l11.26 0 -6.04 -32.41c-0.29,-1.24 -0.83,-2.78 -2.51,-2.92l0 -0.42c2.41,-0.06 2.5,-2.35 2.5,-4.39 0,-2.81 -0.71,-4.75 -2.78,-5.57 -0.65,-0.26 -0.97,-0.26 -1.81,-0.3 -1.17,-0.06 -1.18,-0.31 -1.41,0.26 -0.21,0.5 -0.37,2.69 -0.67,3.31 0.73,0.39 1.25,0.32 1.25,1.46 0,1.75 0.13,1.68 -0.21,3.14 -0.46,0.22 -0.82,0.37 -1.46,0.42l-0.21 -1.88c0,1.04 -0.24,1.47 -0.39,2.33 -0.15,0.87 -0.29,1.35 -0.42,2.09 -0.26,1.5 -0.57,2.69 -0.91,4.11 -0.59,2.5 -0.66,4.25 -2.09,5.64l-1.05 0.83c-0.37,0.25 -0.09,0.02 -0.37,0.26l5.43 0 0 -9.41c0,-0.9 0.91,-0.47 1.46,-0.21 0.5,2.13 0.21,15.86 0.21,19.24 -0.42,-0.49 -0.27,-0.3 -0.47,-0.99l-2.24 -7.16 -3.34 0 2.38 16.43z"/>
    <path fill="#EFB50B" d="M22.19 17.81l0 -17.35 -4.59 0c-0.94,0 -1,-1.23 -0.12,4.72 0.29,2 0.54,3.61 0.83,5.65 0.33,2.24 1.58,9.69 1.58,11.38 2.02,0.97 5.45,0.89 7.31,-0.41 0.87,-0.61 1.35,-1.11 1.69,-2.28 0.87,-2.94 2.33,-10.01 2.92,-13.39 0.17,-1.01 0.42,-2.18 0.65,-3.32 0.65,-3.19 0.38,-2.35 -0.47,-2.35l-8.14 0 0 17.35c0,1.7 -1.67,1.7 -1.67,0z"/>
    <path fill="#EFB50B" d="M22.61 38.5c-1.04,0 -0.48,-0.99 -0.43,-1.88 0.07,-1.12 0.11,-1.54 0.22,-2.51 0.09,-0.84 0.17,-1.49 0.3,-2.42 0.13,-0.93 0.07,-1.5 0.54,-2.18 0,3.2 0.62,5.72 0.62,8.99l-1.25 0zm4.83 -12.37c-0.42,-3.05 0.99,-2.26 -10.47,-2.26l0 0.63c0,0.82 1.88,1.28 1.88,5.02 0,2.04 0.28,4.35 -2.71,4.6 0.41,0.57 0.06,0.16 1.22,0.66 1.39,0.6 1.91,1.73 1.91,3.52 0,5.6 0.48,6.77 -2.84,8.02l-0.29 0.13c6.71,0 5.46,0.48 5.67,-1.84 0.07,-0.71 0.17,-1.1 0.17,-2.13 2.76,0 2.27,-0.19 2.3,1.88 0.01,1.07 0.2,1.04 0.2,2.09l5.84 0 -2.88 -20.31z"/>
  </g>
</svg>
